#!OML:ASF F:\VICON\USERDATA\INSTALL\SteveWalk\SteveWalk.ASF
:FULLY-SPECIFIED
:DEGREES
365
root 0.436408 16.2168 31.4091 17.1589 4.64649 -1.3825
lowerback -15.6665 -0.691273 2.95851
upperback -5.30513 -1.4767 3.00908
thorax 3.15161 -0.723461 1.22283
lowerneck -4.83208 -0.161342 0.227027
upperneck 10.4547 0.195422 -4.05027
head 4.3173 -0.0883514 -1.3954
rclavicle 4.3919e-015 -4.77083e-015
rhumerus -60.9307 -45.8044 -37.6334
rradius 12.9983
rwrist 37.3749
rhand -15.2706 -31.2788
rfingers 7.12502
rthumb 10.9038 -60.9757
lclavicle 4.3919e-015 -4.77083e-015
lhumerus -30.8737 -2.32284 89.7119
lradius 41.3093
lwrist 13.061
lhand -23.0247 -18.5848
lfingers 7.12502
lthumb 3.41923 11.3675
rfemur -38.3767 -0.931155 26.1078
rtibia 36.446
rfoot -15.6556 5.12869
rtoes 0.514531
lfemur -27.0629 1.26736 -18.1235
ltibia 72.3058
lfoot 12.2492 -4.91417
ltoes -8.67128
366
root 0.470973 16.2506 31.589 16.9483 5.28708 -1.8844
lowerback -15.5616 -0.670062 4.02801
upperback -5.23473 -1.60692 3.04876
thorax 3.13831 -0.791144 0.640091
lowerneck -4.94764 -0.164514 0.299247
upperneck 10.7387 0.206932 -4.15285
head 4.44511 -0.0891621 -1.44797
rclavicle -7.97002e-015 7.95139e-016
rhumerus -55.8903 -43.9635 -44.128
rradius 13.6848
rwrist 33.0539
rhand -15.2673 -31.7138
rfingers 7.12502
rthumb 10.9069 -61.4105
lclavicle -7.97002e-015 7.95139e-016
lhumerus -31.0715 -1.68938 89.7648
lradius 39.3596
lwrist 12.2492
lhand -23.2295 -18.6353
lfingers 7.12502
lthumb 3.22144 11.3201
rfemur -37.222 -2.09035 26.9204
rtibia 36.3146
rfoot -16.3966 5.77365
rtoes 1.61606
lfemur -28.5725 0.911512 -17.6555
ltibia 73.3938
lfoot 10.4273 -4.07926
ltoes -7.68068
367
root 0.451171 16.2686 31.7845 16.9617 4.55419 -0.913086
lowerback -16.1274 -0.633401 2.57648
upperback -4.80409 -1.37618 2.81932
thorax 3.93264 -0.6654 1.2492
lowerneck -5.31587 -0.203821 0.255431
upperneck 10.8596 0.168922 -4.1773
head 4.56295 -0.116069 -1.45564
rclavicle 4.31735e-015 -1.03368e-014
rhumerus -51.5258 -42.9632 -49.1244
rradius 14.1411
rwrist 30.0946
rhand -15.1023 -32.1546
rfingers 7.12502
rthumb 11.066 -61.8429
lclavicle 4.31735e-015 -1.03368e-014
lhumerus -30.748 -1.01401 89.7514
lradius 37.2788
lwrist 11.3749
lhand -23.0769 -18.2029
lfingers 7.12502
lthumb 3.36887 11.7502
rfemur -36.2553 -1.31975 25.6796
rtibia 36.2709
rfoot -16.8209 5.18365
rtoes 1.27324
lfemur -29.9882 1.35892 -18.9327
ltibia 74.1325
lfoot 8.83218 -3.2775
ltoes -4.77154
368
root 0.445154 16.2838 31.9849 16.9142 4.26643 -0.477522
lowerback -15.9046 -0.584073 2.04436
upperback -5.0196 -1.20186 2.64387
thorax 3.59272 -0.582843 1.40066
lowerneck -5.20521 -0.249444 0.130168
upperneck 11.396 0.119624 -4.0217
head 4.73404 -0.142914 -1.38941
rclavicle 6.98852e-015 -5.56597e-015
rhumerus -48.595 -40.9727 -53.1157
rradius 14.6791
rwrist 27.1016
rhand -14.9479 -32.2161
rfingers 7.12502
rthumb 11.215 -61.8963
lclavicle 6.98852e-015 -5.56597e-015
lhumerus -31.5884 -0.178017 89.6198
lradius 35.3268
lwrist 10.4402
lhand -22.7636 -17.229
lfingers 7.12502
lthumb 3.67138 12.7191
rfemur -35.1893 -1.08928 25.1571
rtibia 36.0943
rfoot -17.4499 4.97493
rtoes 0.641412
lfemur -31.2852 1.57961 -19.5728
ltibia 74.6697
lfoot 7.18038 -2.50612
ltoes -3.56121
369
root 0.437939 16.2766 32.164 16.6973 4.06822 -0.673919
lowerback -15.2854 -0.443958 2.17779
upperback -5.28516 -1.00233 2.60608
thorax 2.97635 -0.488642 1.32687
lowerneck -4.93691 -0.302004 0.0759256
upperneck 11.7585 0.0419338 -3.84044
head 4.80924 -0.175649 -1.32454
rclavicle -7.29291e-015 -7.95139e-015
rhumerus -45.7821 -38.0694 -57.5644
rradius 15.7462
rwrist 23.3364
rhand -14.7229 -32.8015
rfingers 7.12502
rthumb 11.432 -62.4698
lclavicle -7.29291e-015 -7.95139e-015
lhumerus -32.5482 0.668295 89.3896
lradius 33.3842
lwrist 9.5475
lhand -22.824 -16.4628
lfingers 7.12502
lthumb 3.61305 13.4863
rfemur -34.1288 -0.662327 25.3313
rtibia 35.8968
rfoot -17.9635 4.80434
rtoes 0.874894
lfemur -32.6728 2.03097 -19.4501
ltibia 75.2042
lfoot 5.5325 -1.92451
ltoes -5.39092
370
root 0.461465 16.2933 32.3437 16.4693 4.70837 -0.862742
lowerback -15.2233 -0.536044 2.75315
upperback -5.13313 -1.2105 2.61517
thorax 3.09221 -0.592738 0.975068
lowerneck -4.99856 -0.312281 -0.0273467
upperneck 12.1899 0.0556669 -3.87537
head 4.4696 -0.191974 -1.18305
rclavicle 2.5755e-014 -2.38542e-014
rhumerus -41.9139 -34.2951 -62.858
rradius 16.8572
rwrist 18.4249
rhand -15.1449 -33.5613
rfingers 7.12502
rthumb 11.025 -63.2518
lclavicle 2.5755e-014 -2.38542e-014
lhumerus -32.8462 1.87118 89.1202
lradius 31.395
lwrist 8.48339
lhand -23.0048 -17.0602
lfingers 7.12502
lthumb 3.43848 12.8918
rfemur -32.9219 -1.82287 25.7498
rtibia 35.5305
rfoot -18.7544 5.43557
rtoes 1.713
lfemur -33.9756 1.54703 -19.3225
ltibia 75.4388
lfoot 3.9531 -1.1322
ltoes -7.42642
371
root 0.436686 16.2974 32.5371 16.309 4.29758 -0.732872
lowerback -15.2487 -0.455891 2.1913
upperback -5.02397 -1.02714 2.58839
thorax 3.23172 -0.499012 1.29551
lowerneck -4.86032 -0.267962 -0.0618083
upperneck 12.2898 0.10966 -3.78342
head 4.47796 -0.16153 -1.14636
rclavicle -1.58469e-014 7.15625e-015
rhumerus -38.6802 -29.8128 -67.6562
rradius 18.0016
rwrist 13.0199
rhand -15.6664 -34.53
rfingers 7.12502
rthumb 10.522 -64.2466
lclavicle -1.58469e-014 7.15625e-015
lhumerus -33.3247 3.00335 88.6736
lradius 29.4697
lwrist 7.26189
lhand -23.1805 -17.9997
lfingers 7.12502
lthumb 3.2688 11.955
rfemur -31.8834 -0.977656 25.4973
rtibia 35.1962
rfoot -19.3677 4.87312
rtoes 0.734255
lfemur -35.2331 2.0846 -19.5535
ltibia 75.417
lfoot 2.27797 -0.60399
ltoes -8.42858
372
root 0.42628 16.3035 32.7233 16.2208 3.96032 -0.0784879
lowerback -15.1285 -0.500323 1.33687
upperback -5.03955 -0.946264 2.34774
thorax 3.16122 -0.458236 1.54042
lowerneck -4.44121 -0.177036 -0.00268069
upperneck 11.9639 0.186513 -3.55926
head 4.78452 -0.0909545 -1.20428
rclavicle -1.3331e-014 1.19271e-014
rhumerus -36.6862 -26.7846 -70.6784
rradius 19.0459
rwrist 10.1943
rhand -15.4778 -34.7074
rfingers 7.12502
rthumb 10.7039 -64.4147
lclavicle -1.3331e-014 1.19271e-014
lhumerus -33.8818 4.22372 87.9942
lradius 27.4876
lwrist 5.96491
lhand -23.4328 -18.248
lfingers 7.12502
lthumb 3.02512 11.7103
rfemur -30.8924 -0.695956 24.7393
rtibia 34.9031
rfoot -19.8881 4.56543
rtoes -0.803901
lfemur -36.3901 2.24586 -20.4415
ltibia 75.0616
lfoot 0.807196 0.0772595
ltoes -8.17111
373
root 0.431702 16.3139 32.9138 16.1761 3.9761 0.666482
lowerback -15.0744 -0.691075 0.649522
upperback -5.13705 -1.08242 2.0649
thorax 3.03965 -0.524895 1.6091
lowerneck -4.04876 -0.114654 0.139698
upperneck 12.1345 0.25219 -3.4992
head 4.76876 -0.0474047 -1.2051
rclavicle -5.96354e-015 -1.35174e-014
rhumerus -35.1373 -24.4002 -72.9397
rradius 19.8301
rwrist 8.51517
rhand -15.6146 -33.9834
rfingers 7.12502
rthumb 10.5719 -63.6975
lclavicle -5.96354e-015 -1.35174e-014
lhumerus -34.7106 5.79497 87.0522
lradius 25.7083
lwrist 4.39628
lhand -23.4798 -17.8664
lfingers 7.12502
lthumb 2.97975 12.0926
rfemur -29.9197 -1.29595 24.0224
rtibia 34.7387
rfoot -20.5508 4.81999
rtoes -0.444082
lfemur -37.4827 1.95149 -21.4005
ltibia 74.4708
lfoot -0.593688 0.727
ltoes -6.20333
